<?xml version="1.0" encoding="utf-8"?>
<!-- Generator: Adobe Illustrator 23.0.3, SVG Export Plug-In . SVG Version: 6.00 Build 0)  -->
<svg version="1.1" id="Calque_1" xmlns="http://www.w3.org/2000/svg" xmlns:xlink="http://www.w3.org/1999/xlink" x="0px" y="0px"
	 viewBox="0 0 180 60" style="enable-background:new 0 0 180 60;" xml:space="preserve">
<g>
	<path d="M19.43,46.31l-0.65,1.43c-1.6-1.82-2.94-3.85-3.98-6.06L19.43,46.31z"/>
	<path d="M27.42,54.3c-1.94-0.92-3.75-2.07-5.39-3.41l1.36-0.62L27.42,54.3z"/>
	<path d="M53.78,52.13c-4.27,2.97-9.46,4.71-15.05,4.71c-1.2,0-2.38-0.08-3.53-0.25c0.11-0.5,0.08-1.13-0.16-2.03
		c1.2,0.19,2.43,0.28,3.69,0.28c5.03,0,9.72-1.52,13.62-4.14L53.78,52.13z"/>
	<path d="M65.22,30.36c0,6.15-2.1,11.81-5.64,16.31c-0.2-0.4-0.41-0.81-0.64-1.25l-0.31-0.61c-0.02-0.04-0.04-0.08-0.06-0.12
		c2.93-4.03,4.65-8.98,4.65-14.33c0-5.15-1.6-9.94-4.33-13.89c0.42-0.76,0.74-1.44,0.98-2.05C63.23,18.86,65.22,24.38,65.22,30.36z"
		/>
	<path d="M55.41,9.81c-0.62,0.24-1.3,0.56-2.02,0.94c-4.09-3.06-9.17-4.88-14.66-4.88c-5.45,0-10.5,1.8-14.57,4.82
		c-0.7-0.35-1.35-0.69-1.96-1c4.53-3.64,10.28-5.82,16.53-5.82C45.05,3.87,50.86,6.09,55.41,9.81z"/>
	<path d="M14.25,30.36c0,1.43,0.12,2.84,0.37,4.2c-0.33-0.07-0.64-0.11-0.9-0.11c-0.41,0-0.78,0.08-1.11,0.22
		c-0.24-1.4-0.36-2.84-0.36-4.31c0-5.58,1.74-10.78,4.7-15.05l1.44,1.44C15.78,20.64,14.25,25.33,14.25,30.36z"/>
	<path d="M60.63,55.52c-0.4,0-1.21-0.57-2.61-1.97c-0.8-0.8-1.68-1.69-2.62-2.62c-0.46-0.47-0.94-0.94-1.42-1.43
		c-6-5.99-13.14-13.13-13.14-13.13s-8.92,7.92-12.26,9.42c0.29,0.47,0.61,1,0.93,1.56c0.13,0.23,0.26,0.46,0.39,0.7
		c0.07,0.12,0.13,0.24,0.2,0.36c0.13,0.24,0.26,0.49,0.39,0.74c0.13,0.24,0.26,0.49,0.39,0.74c0.51,1,1,2.01,1.39,2.93
		c0.1,0.23,0.19,0.45,0.28,0.67c0.09,0.21,0.17,0.42,0.24,0.62s0.14,0.39,0.2,0.57c0.23,0.74,0.33,1.3,0.22,1.58
		c-0.04,0.13-0.12,0.2-0.26,0.2c-0.2,0-0.5-0.15-0.93-0.49c-0.3-0.23-0.67-0.56-1.1-1l-2.34-2.34c-3.48-3.48-4.75-4.75-4.75-4.75
		l-1.46,0.67l-1.97,0.89l-0.24,0.11l0.11-0.23l0.88-1.95l0.68-1.49c0,0-1.43-1.43-5.36-5.36c-0.53-0.53-1.11-1.1-1.73-1.73
		c-1.37-1.37-1.71-2.06-1.37-2.27c0.05-0.03,0.13-0.05,0.21-0.06c0.04,0,0.08-0.01,0.13-0.01h0.06c0.32,0.01,0.78,0.12,1.33,0.3
		c0.06,0.02,0.13,0.04,0.19,0.06h0.01c0.19,0.07,0.39,0.14,0.59,0.22c0.21,0.08,0.42,0.17,0.65,0.26c0.89,0.37,1.89,0.84,2.89,1.34
		c1.62,0.82,3.26,1.73,4.48,2.49c1.5-3.33,9.42-12.26,9.42-12.26s-7.62-7.62-13.74-13.74c-0.48-0.49-0.96-0.96-1.42-1.42
		c-0.71-0.71-1.39-1.39-2.02-2.02c-1.58-1.58-2.1-2.41-1.94-2.74c0.02-0.03,0.05-0.06,0.09-0.09c0.08-0.05,0.19-0.07,0.33-0.07
		c0.22,0,0.5,0.06,0.85,0.15c0.11,0.03,0.23,0.07,0.36,0.11c0.16,0.05,0.34,0.12,0.52,0.18c0.1,0.04,0.19,0.08,0.29,0.11
		c0.19,0.08,0.38,0.16,0.59,0.24c0,0,0,0,0.01,0.01c0.31,0.12,0.63,0.27,0.96,0.41c0.77,0.35,1.57,0.74,2.36,1.12
		c0.35,0.18,0.7,0.36,1.04,0.53c0.22,0.11,0.44,0.22,0.65,0.33c0.07,0.04,0.14,0.07,0.21,0.11c0.56,0.28,1.07,0.54,1.51,0.77
		c4.08,2.09,16.61,9.43,16.61,9.43s0.47-0.39,1.26-1.01c0.26-0.21,0.56-0.45,0.89-0.7c0.33-0.26,0.69-0.54,1.07-0.83
		c0.76-0.59,1.62-1.25,2.53-1.92c0.68-0.51,1.39-1.03,2.12-1.54c0.72-0.51,1.44-1.02,2.16-1.5c0,0,0-0.01,0.01-0.01
		c0.48-0.31,0.95-0.62,1.41-0.92c0,0,0,0,0.01-0.01c0.46-0.28,0.92-0.56,1.35-0.82c0,0,0,0,0.01-0.01c0.15-0.08,0.29-0.16,0.43-0.24
		c0.29-0.16,0.56-0.31,0.83-0.45c0.13-0.07,0.26-0.13,0.39-0.19c0.07-0.04,0.13-0.07,0.19-0.1c0,0,0-0.01,0.01-0.01
		c0.19-0.09,0.37-0.17,0.54-0.24c0.34-0.14,0.65-0.25,0.93-0.34h0.01c0.15-0.04,0.28-0.07,0.41-0.09c0.36-0.07,0.66-0.05,0.87,0.05
		c0.07,0.03,0.12,0.07,0.17,0.12c0.21,0.21,0.26,0.58,0.16,1.07c-0.1,0.56-0.38,1.29-0.8,2.12c-2.56,5.16-10.12,14.4-10.12,14.4
		s7.33,12.53,9.42,16.61c0.11,0.21,0.23,0.44,0.35,0.68v0.01c0.06,0.1,0.11,0.2,0.17,0.31c0.06,0.13,0.13,0.27,0.2,0.41
		c0.11,0.21,0.22,0.42,0.33,0.63c0.09,0.18,0.18,0.36,0.28,0.55c0,0,0,0,0,0.01c0.8,1.59,1.66,3.36,2.2,4.74
		c0.07,0.19,0.14,0.38,0.2,0.55C60.98,54.75,61.09,55.52,60.63,55.52z"/>
	<g>
		<path d="M71.26,38c0.17-1.66,0.29-3,0.36-4c0.1-1.49,0.19-3.54,0.28-6.15c0.09-2.61,0.14-4.36,0.14-5.26v-1.35
			c2.47,0.02,4.76,0.02,6.88,0.02c2.14,0,4.19-0.01,6.17-0.02c-0.13,1.88-0.2,3.12-0.2,3.7l-1.07-0.04l-0.86-0.01l-0.86-0.01h-2.42
			c-0.28,0-1.09,0.01-2.44,0.02l-0.11,2.86l1.78,0.04h1.99c0.57,0,1.45-0.01,2.63-0.04c-0.09,1.55-0.14,2.76-0.14,3.64
			c-1.32-0.04-2.29-0.06-2.93-0.06c-1.08,0-2.26,0.02-3.53,0.06l-0.13,4.42l-0.01,1.65V38l-2.64-0.02
			C73.93,37.98,72.97,37.99,71.26,38z"/>
		<path d="M86.48,38l0.22-2.64l0.48-9.18l0.13-4.94c1.14,0.02,2,0.02,2.57,0.02c0.75,0,1.57-0.01,2.47-0.02l-0.28,3.77l-0.45,9.29
			L91.53,38c-0.88-0.01-1.67-0.01-2.37-0.01L86.48,38z"/>
		<path d="M93.28,43.62c-0.25-1.96-0.43-3.17-0.52-3.65c0.52,0.25,0.97,0.41,1.37,0.5c0.4,0.09,0.74,0.13,1.03,0.13
			c0.3,0,0.59-0.04,0.85-0.12c0.27-0.08,0.48-0.18,0.63-0.3c0.16-0.12,0.33-0.3,0.51-0.55c0.18-0.25,0.32-0.46,0.41-0.63
			c0.09-0.18,0.18-0.43,0.27-0.75l-2.31-6.99l-1.98-5.8c1.22,0.02,2.08,0.02,2.57,0.02c0.57,0,1.36-0.01,2.35-0.02
			c0.16,0.63,0.44,1.72,0.87,3.27c0.42,1.55,0.73,2.76,0.92,3.64c0.11,0.48,0.21,1.1,0.31,1.84l0.26-0.98
			c0.08-0.26,0.18-0.56,0.28-0.9s0.24-0.74,0.41-1.2l0.8-2.24l1.33-3.43c1.02,0.02,1.8,0.02,2.32,0.02c0.46,0,1.28-0.01,2.46-0.02
			l-2.37,5.36l-4.28,9.94c-0.28,0.56-0.54,1-0.8,1.33c-0.24,0.29-0.5,0.55-0.77,0.77c-0.26,0.21-0.54,0.38-0.85,0.52
			c-0.41,0.19-0.86,0.33-1.35,0.44c-0.54,0.12-1.09,0.17-1.65,0.17c-0.25,0-0.59-0.02-1.01-0.06c-0.42-0.04-0.76-0.07-1.01-0.11
			C94.04,43.79,93.7,43.72,93.28,43.62z"/>
		<path d="M107.69,38l4.12-8.07l3.63-7.15l0.75-1.55c0.2,0.01,0.43,0.01,0.66,0.01c0.25,0,0.47,0,0.66-0.01l2.38,6.76L123.51,38
			c-0.21-0.01-0.4-0.01-0.55-0.01c-0.16,0-0.35,0-0.55,0.01c-0.23-0.79-0.66-2.09-1.29-3.9c-0.63-1.81-1.13-3.18-1.49-4.11h-6.94
			L108.82,38c-0.2-0.01-0.39-0.01-0.56-0.01S107.89,38,107.69,38z M113.07,29.2h6.29l-2.62-7.2L113.07,29.2z"/>
		<path d="M129.01,38l-0.57-1.71l-3.94-10.7c0.21,0.01,0.38,0.01,0.5,0.01c0.12,0,0.29,0,0.5-0.01l0.49,1.51l1.92,5.4l1.34,3.6
			c0.11,0.29,0.28,0.71,0.5,1.25l1.18-3l3.26-8.77c0.21,0.01,0.39,0.01,0.57,0.01c0.18,0,0.37,0,0.58-0.01l3.27,11.78
			c2.06-4.48,3.78-8.41,5.14-11.78c0.22,0.01,0.39,0.01,0.5,0.01c0.11,0,0.28,0,0.49-0.01l-4.78,10.55L139.2,38
			c-0.29-0.01-0.51-0.01-0.68-0.01c-0.17,0-0.4,0-0.69,0.01l-0.58-2.3l-2.18-7.94c-0.07-0.25-0.21-0.68-0.41-1.29l-0.41,0.98
			l-3.56,9.61c-0.05,0.12-0.15,0.43-0.31,0.93c-0.29-0.01-0.52-0.01-0.7-0.01C129.52,37.99,129.28,38,129.01,38z"/>
		<path d="M146.72,26.9c0.06-0.28,0.1-0.6,0.13-0.96c0.83-0.23,1.56-0.39,2.17-0.47s1.24-0.13,1.87-0.13c0.73,0,1.41,0.06,2.03,0.19
			c0.63,0.13,1.14,0.34,1.54,0.64c0.4,0.3,0.66,0.64,0.79,1.03c0.13,0.38,0.19,0.78,0.19,1.18c0,0.41-0.01,0.93-0.04,1.55
			c-0.03,0.63-0.07,1.3-0.12,2.02c-0.05,0.72-0.09,1.62-0.13,2.7c-0.04,1.08-0.06,1.85-0.06,2.33V38c-0.21-0.01-0.38-0.01-0.52-0.01
			c-0.14,0-0.31,0-0.52,0.01c0.11-1.25,0.19-2.27,0.24-3.05s0.08-1.62,0.11-2.51c0.03-0.9,0.07-1.73,0.12-2.51
			c-0.25,0.21-0.45,0.37-0.58,0.47c-0.14,0.1-0.28,0.19-0.44,0.28c-0.16,0.08-0.35,0.17-0.58,0.25c-0.23,0.09-0.43,0.16-0.62,0.22
			c-0.19,0.06-0.65,0.19-1.37,0.39s-1.24,0.34-1.55,0.44c-0.71,0.23-1.25,0.45-1.63,0.65c-0.42,0.22-0.77,0.47-1.04,0.74
			c-0.25,0.24-0.43,0.49-0.54,0.75c-0.13,0.31-0.2,0.64-0.2,0.99c0,0.53,0.16,0.99,0.48,1.39c0.32,0.39,0.72,0.67,1.21,0.83
			c0.49,0.16,1.08,0.24,1.76,0.24c0.34,0,0.68-0.02,1-0.05c0.32-0.04,0.62-0.09,0.9-0.15c0.28-0.06,0.69-0.18,1.22-0.35
			c-0.07,0.31-0.13,0.62-0.18,0.93c-0.66,0.13-1.2,0.21-1.62,0.25c-0.41,0.04-0.8,0.06-1.17,0.06c-0.69,0-1.32-0.05-1.9-0.16
			c-0.58-0.11-1.07-0.31-1.46-0.63c-0.39-0.31-0.68-0.67-0.87-1.08s-0.28-0.84-0.28-1.29c0-0.34,0.06-0.68,0.17-1
			s0.29-0.63,0.53-0.93c0.2-0.25,0.46-0.47,0.79-0.69c0.38-0.26,0.81-0.48,1.28-0.66c0.54-0.21,1.12-0.41,1.74-0.59
			c0.17-0.05,0.85-0.23,2.03-0.53c0.53-0.14,1.04-0.31,1.51-0.52c0.47-0.21,0.84-0.5,1.11-0.87c0.26-0.37,0.39-0.75,0.39-1.13
			c0-0.28-0.06-0.55-0.18-0.8c-0.12-0.26-0.34-0.5-0.66-0.73c-0.32-0.23-0.71-0.39-1.17-0.48c-0.47-0.09-0.96-0.13-1.47-0.13
			c-0.6,0-1.16,0.04-1.68,0.12c-0.52,0.08-0.97,0.17-1.33,0.27C147.72,26.52,147.26,26.68,146.72,26.9z"/>
		<path d="M156.05,43.72c0-0.27-0.02-0.59-0.07-0.96c0.25,0.11,0.46,0.2,0.63,0.25c0.16,0.05,0.36,0.1,0.6,0.14s0.45,0.05,0.65,0.05
			c0.47,0,0.91-0.12,1.32-0.36c0.41-0.24,0.82-0.72,1.24-1.45c0.42-0.73,0.91-1.73,1.46-3l-2.71-7.53l-1.94-5.26
			c0.24,0.01,0.43,0.01,0.59,0.01s0.35,0,0.58-0.01l0.22,0.87c0.09,0.34,0.19,0.68,0.31,1.02c0.15,0.48,0.37,1.11,0.65,1.9
			l2.79,7.97l3.88-8.64c0.35-0.79,0.6-1.37,0.74-1.72c0.14-0.35,0.31-0.82,0.5-1.4c0.24,0.01,0.42,0.01,0.56,0.01
			c0.14,0,0.33,0,0.57-0.01c-0.41,0.92-1.16,2.54-2.25,4.88l-2.39,5.17l-2.3,5.06c-0.36,0.78-0.67,1.35-0.93,1.72
			c-0.21,0.29-0.43,0.53-0.66,0.74c-0.17,0.15-0.36,0.27-0.58,0.38c-0.25,0.13-0.53,0.23-0.82,0.29c-0.32,0.08-0.65,0.12-0.98,0.12
			C157.16,43.96,156.62,43.88,156.05,43.72z"/>
	</g>
</g>
</svg>
